PathFileType	4	(X/Y/Z)	5_coords_data.trc
DataRate	CameraRate	NumFrames	NumMarkers	Units	OrigDataRate	OrigDataStartFrame	OrigNumFrames
30.0	30.0	7	21	m	30.0	10	68
Frame#	Time	THUMB_TIP	THUMB_IP	THUMB_MCP	THUMB_CMC	INDEX_TIP	INDEX_DIP	INDEX_PIP	INDEX_MCP	MIDDLE_TIP	MIDDLE_DIP	MIDDLE_PIP	MIDDLE_MCP	RING_TIP	RING_DIP	RING_PIP	RING_MCP	PINKY_TIP	PINKY_DIP	PINKY_PIP	PINKY_MCP	WRIST
X1	Y1	Z1	X2	Y2	Z2	X3	Y3	Z3	X4	Y4	Z4	X5	Y5	Z5	X6	Y6	Z6	X7	Y7	Z7	X8	Y8	Z8	X9	Y9	Z9	X10	Y10	Z10	X11	Y11	Z11	X12	Y12	Z12	X13	Y13	Z13	X14	Y14	Z14	X15	Y15	Z15	X16	Y16	Z16	X17	Y17	Z17	X18	Y18	Z18	X19	Y19	Z19	X20	Y20	Z20	X21	Y21	Z21
9	0.3	-0.05031840133666992	-0.12494200134277343	1.04497998046875	-0.0727082977294922	-0.12301000213623046	1.04947998046875	-0.08886569976806641	-0.1021719970703125	1.0493599853515625	-0.07971060180664062	-0.0735625	1.0554000244140624	-0.05236270141601562	-0.1746219940185547	0.99102197265625	-0.057430198669433594	-0.15445599365234375	0.9932160034179688	-0.06183250045776367	-0.1319830017089844	0.9950390014648437	-0.06617970275878907	-0.09255840301513672	1.0031300048828125	-0.07108820343017579	-0.09829039764404297	1.048449951171875	-0.06257699966430665	-0.10994100189208984	1.041260009765625	-0.05045819854736328	-0.12313400268554688	1.02581005859375	-0.04569990158081055	-0.08724510192871093	1.0033099975585937	-0.059161998748779296	-0.09686630249023437	1.0643299560546875	-0.0501239013671875	-0.10852999877929688	1.0502900390625	-0.03367330169677735	-0.12038400268554687	1.0311500244140626	-0.029480600357055665	-0.08453299713134765	1.0153599853515625	0.0015387599468231201	-0.13952499389648437	1.0031799926757812	-0.0056111102104187014	-0.12298999786376953	1.01172998046875	-0.0135310001373291	-0.10789199829101563	1.0198099975585937	-0.02379789924621582	-0.08527770233154297	1.0339599609375	-0.06718869781494141	-0.03803559875488281	1.0706800537109376
10	0.3333333333333333	-0.050290699005126956	-0.1246500015258789	1.044989990234375	-0.07288700103759765	-0.12299700164794922	1.0493800048828126	-0.08922740173339844	-0.10241500091552734	1.0493299560546876	-0.07969860076904296	-0.07370120239257813	1.0553599853515625	-0.052845600128173825	-0.17464599609375	0.9909959716796874	-0.05788460159301758	-0.15449000549316405	0.9931400146484375	-0.06228639984130859	-0.13203799438476563	0.994906982421875	-0.0665522003173828	-0.09253359985351563	1.003010009765625	-0.07156710052490234	-0.09829979705810547	1.0481700439453125	-0.06302830123901368	-0.11002899932861328	1.0410400390625	-0.05044919967651367	-0.12304000091552734	1.0253699951171875	-0.04609400177001953	-0.08723729705810547	1.0031599731445313	-0.05965250015258789	-0.09684660339355469	1.0639599609375	-0.050262901306152345	-0.10855899810791016	1.0498299560546875	-0.03391310119628906	-0.12046700286865235	1.0308599853515625	-0.029915199279785157	-0.08444069671630859	1.0151400146484375	0.0012754900455474848	-0.13937600708007813	1.0028099975585938	-0.005889609813690185	-0.12280599975585937	1.011469970703125	-0.013821800231933594	-0.10775299835205078	1.0195	-0.0242052001953125	-0.08518830108642578	1.033800048828125	-0.0676082992553711	-0.038022998809814454	1.0709200439453126
11	0.36666666666666664	-0.04996329879760742	-0.12502799987792967	1.0448499755859375	-0.07273639678955078	-0.12323999786376953	1.049300048828125	-0.08915720367431641	-0.10264499664306641	1.0496300048828124	-0.07995870208740234	-0.07395770263671875	1.05527001953125	-0.05305770111083984	-0.17478300476074218	0.9911719970703124	-0.0581171989440918	-0.15466700744628906	0.9932780151367188	-0.06256039810180664	-0.1322239990234375	0.9949429931640625	-0.06680370330810546	-0.09275450134277344	1.0029099731445312	-0.0711708984375	-0.09887920379638672	1.0489200439453126	-0.06282040023803712	-0.11020700073242187	1.0415799560546875	-0.05053990173339844	-0.12311399841308594	1.025280029296875	-0.04649589920043945	-0.08723290252685546	1.003010009765625	-0.059536201477050785	-0.09746700286865234	1.0639300537109375	-0.05027489852905274	-0.10872100067138672	1.0496800537109374	-0.033872100830078126	-0.12043800354003906	1.0304599609375	-0.030250099182128905	-0.08439209747314454	1.0148699951171876	0.001191939949989318	-0.1391820068359375	1.0025399780273438	-0.006013850212097168	-0.12268699645996094	1.0111699829101561	-0.013943099975585937	-0.10765799713134766	1.0194500122070314	-0.024430999755859373	-0.08504660034179687	1.0336400146484375	-0.06795860290527343	-0.038194900512695314	1.07077001953125
12	0.4	-0.05022890090942383	-0.12471499633789063	1.0453599853515625	-0.0726270980834961	-0.12362599945068359	1.0495	-0.08919390106201172	-0.1031259994506836	1.049800048828125	-0.08013610076904297	-0.07429660034179687	1.055469970703125	-0.05314390182495117	-0.17536399841308595	0.9921699829101562	-0.058189701080322266	-0.15515800476074218	0.9941010131835938	-0.06263999938964844	-0.13274099731445313	0.995572021484375	-0.0669854965209961	-0.09304789733886719	1.003219970703125	-0.07074320220947265	-0.09898429870605469	1.0496199951171874	-0.06247050094604492	-0.11047799682617188	1.0416600341796876	-0.050440498352050785	-0.12343599700927735	1.025550048828125	-0.0467046012878418	-0.08759089660644531	1.0031799926757812	-0.059249698638916014	-0.09693049621582031	1.0638699951171875	-0.049667598724365235	-0.10876200103759766	1.05052001953125	-0.03373630142211914	-0.12059600067138672	1.03118994140625	-0.03034090042114258	-0.08458039855957031	1.0151199951171874	0.001190840005874633	-0.13936599731445312	1.0028599853515625	-0.00603449010848999	-0.12282099914550781	1.011469970703125	-0.014004300117492676	-0.10773300170898438	1.0197899780273438	-0.024453699111938478	-0.08531490325927735	1.0335699462890624	-0.06812670135498047	-0.03864149856567383	1.070449951171875
13	0.43333333333333335	-0.05010660171508789	-0.12475800323486329	1.0457099609375	-0.07236679840087891	-0.12370600128173828	1.0500999755859375	-0.08902899932861329	-0.10359100341796874	1.0500799560546874	-0.08019429779052735	-0.07457900238037109	1.0557900390625	-0.05317229843139649	-0.17586199951171874	0.9929459838867187	-0.05819490051269531	-0.15566700744628906	0.9947730102539063	-0.06266099929809571	-0.1331999969482422	0.9960759887695313	-0.06693099975585938	-0.09349440002441406	1.0034000244140624	-0.07097679901123047	-0.09922380065917968	1.049550048828125	-0.06256039810180664	-0.11069599914550782	1.0416099853515626	-0.050268901824951175	-0.12366200256347656	1.02577001953125	-0.04670719909667969	-0.08785060119628907	1.0034099731445312	-0.0591067008972168	-0.09712380218505859	1.0639200439453125	-0.05016849899291992	-0.10911599731445312	1.0498499755859374	-0.033627601623535154	-0.12068199920654298	1.0311800537109375	-0.030401699066162108	-0.08480100250244141	1.0152899780273437	0.001275269985198974	-0.13956199645996092	1.0031199951171874	-0.0059557600021362305	-0.12301799774169922	1.0116400146484374	-0.013913700103759766	-0.10796299743652343	1.0198699951171875	-0.02439649963378906	-0.08537200164794922	1.0336300048828124	-0.06820269775390625	-0.03886709976196289	1.0708699951171874
14	0.4666666666666667	-0.04964039993286133	-0.12515200042724609	1.045780029296875	-0.07233660125732422	-0.12413899993896485	1.0499000244140626	-0.0889844970703125	-0.10370800018310547	1.050219970703125	-0.08004010009765625	-0.07489679718017578	1.0559599609375	-0.05327830123901367	-0.17611599731445313	0.9932940063476563	-0.05830130004882812	-0.15591400146484374	0.995031982421875	-0.06274570083618164	-0.13343299865722658	0.9962249755859375	-0.0669906997680664	-0.09365730285644532	1.0034500122070313	-0.07049960327148437	-0.09924629974365234	1.05131005859375	-0.06231000137329101	-0.11089700317382813	1.0420899658203124	-0.05027590179443359	-0.12384500122070312	1.025949951171875	-0.04692190170288086	-0.08801629638671875	1.0032899780273437	-0.05914749908447266	-0.09774079895019532	1.064469970703125	-0.04993849945068359	-0.10909100341796875	1.0501800537109376	-0.033608898162841794	-0.12078900146484375	1.0313199462890625	-0.03048710060119629	-0.08491609954833984	1.0151599731445313	0.001394970059394836	-0.13958599853515624	1.0030399780273438	-0.005890840053558349	-0.12305000305175781	1.0115999755859375	-0.013855299949645995	-0.10802999877929688	1.0198099975585937	-0.024423099517822264	-0.08547679901123047	1.0335999755859375	-0.068306396484375	-0.03903139877319336	1.0708299560546874
15	0.5	-0.04968539810180664	-0.12510399627685548	1.04568994140625	-0.07235990142822266	-0.12412799835205078	1.04993994140625	-0.08910060119628906	-0.10373300170898438	1.0502099609375	-0.08022019958496093	-0.07492549896240235	1.055949951171875	-0.05347969818115234	-0.17624200439453125	0.9936539916992188	-0.05846310043334961	-0.15610699462890626	0.9953939819335937	-0.06289720153808594	-0.13359700012207032	0.9964459838867188	-0.06715309906005859	-0.09378070068359375	1.0034099731445312	-0.07066549682617188	-0.0989613037109375	1.0503599853515626	-0.0625349998474121	-0.11076799774169922	1.041719970703125	-0.05043550109863281	-0.12391100311279298	1.0260899658203124	-0.047052101135253904	-0.08808589935302734	1.003280029296875	-0.05922589874267578	-0.09757230377197265	1.0647900390625	-0.05007360076904297	-0.10912599945068359	1.050199951171875	-0.033532299041748044	-0.1209010009765625	1.031219970703125	-0.030549699783325196	-0.08494950103759766	1.0150800170898437	0.001437319993972778	-0.1396840057373047	1.0032899780273437	-0.00587621021270752	-0.12309100341796875	1.0116500244140625	-0.013879300117492676	-0.10805899810791016	1.01977001953125	-0.02451919937133789	-0.08544139862060547	1.0336300048828124	-0.06835639953613282	-0.03940610122680664	1.070280029296875
